<?xml version="1.0" encoding="UTF-8" standalone="no"?>
<!DOCTYPE svg PUBLIC "-//W3C//DTD SVG 1.1//EN"
 "http://www.w3.org/Graphics/SVG/1.1/DTD/svg11.dtd">
<!-- Generated by graphviz version 8.0.5 (20230430.1635)
 -->
<!-- Title: mygraph Pages: 1 -->
<svg width="2688pt" height="791pt"
 viewBox="0.00 0.00 2688.38 790.50" xmlns="http://www.w3.org/2000/svg" xmlns:xlink="http://www.w3.org/1999/xlink">
<g id="graph0" class="graph" transform="scale(1 1) rotate(0) translate(4 786.5)">
<title>mygraph</title>
<polygon fill="white" stroke="none" points="-4,4 -4,-786.5 2684.38,-786.5 2684.38,4 -4,4"/>
<!-- //:node_modules/is&#45;odd/dir -->
<g id="node1" class="node">
<title>//:node_modules/is&#45;odd/dir</title>
<polygon fill="none" stroke="black" points="163,-614.5 0,-614.5 0,-578.5 163,-578.5 163,-614.5"/>
<text text-anchor="middle" x="81.5" y="-591.45" font-family="Times,serif" font-size="14.00">//:node_modules/is&#45;odd/dir</text>
</g>
<!-- //:node_modules/is&#45;odd -->
<g id="node2" class="node">
<title>//:node_modules/is&#45;odd</title>
<polygon fill="none" stroke="black" points="153.62,-540 9.38,-540 9.38,-504 153.62,-504 153.62,-540"/>
<text text-anchor="middle" x="81.5" y="-516.95" font-family="Times,serif" font-size="14.00">//:node_modules/is&#45;odd</text>
</g>
<!-- //:node_modules/is&#45;odd/dir&#45;&gt;//:node_modules/is&#45;odd -->
<g id="edge1" class="edge">
<title>//:node_modules/is&#45;odd/dir&#45;&gt;//:node_modules/is&#45;odd</title>
<path fill="none" stroke="black" d="M81.5,-578.32C81.5,-570.1 81.5,-560.06 81.5,-550.8"/>
<polygon fill="black" stroke="black" points="85,-551.06 81.5,-541.06 78,-551.06 85,-551.06"/>
</g>
<!-- //:.aspect_rules_js/node_modules/is&#45;odd@3.0.1 -->
<g id="node4" class="node">
<title>//:.aspect_rules_js/node_modules/is&#45;odd@3.0.1</title>
<polygon fill="none" stroke="black" points="404.88,-468 130.12,-468 130.12,-432 404.88,-432 404.88,-468"/>
<text text-anchor="middle" x="267.5" y="-444.95" font-family="Times,serif" font-size="14.00">//:.aspect_rules_js/node_modules/is&#45;odd@3.0.1</text>
</g>
<!-- //:node_modules/is&#45;odd&#45;&gt;//:.aspect_rules_js/node_modules/is&#45;odd@3.0.1 -->
<g id="edge17" class="edge">
<title>//:node_modules/is&#45;odd&#45;&gt;//:.aspect_rules_js/node_modules/is&#45;odd@3.0.1</title>
<path fill="none" stroke="black" d="M127.96,-503.52C153.24,-494 184.71,-482.16 211.36,-472.13"/>
<polygon fill="black" stroke="black" points="212.19,-475.18 220.31,-468.38 209.72,-468.63 212.19,-475.18"/>
</g>
<!-- //:.aspect_rules_js/node_modules/is&#45;odd@3.0.1/dir -->
<g id="node3" class="node">
<title>//:.aspect_rules_js/node_modules/is&#45;odd@3.0.1/dir</title>
<polygon fill="none" stroke="black" points="465.25,-540 171.75,-540 171.75,-504 465.25,-504 465.25,-540"/>
<text text-anchor="middle" x="318.5" y="-516.95" font-family="Times,serif" font-size="14.00">//:.aspect_rules_js/node_modules/is&#45;odd@3.0.1/dir</text>
</g>
<!-- //:.aspect_rules_js/node_modules/is&#45;odd@3.0.1/dir&#45;&gt;//:.aspect_rules_js/node_modules/is&#45;odd@3.0.1 -->
<g id="edge2" class="edge">
<title>//:.aspect_rules_js/node_modules/is&#45;odd@3.0.1/dir&#45;&gt;//:.aspect_rules_js/node_modules/is&#45;odd@3.0.1</title>
<path fill="none" stroke="black" d="M305.89,-503.7C300.03,-495.64 292.92,-485.89 286.43,-476.98"/>
<polygon fill="black" stroke="black" points="288.68,-475.13 279.96,-469.1 283.02,-479.25 288.68,-475.13"/>
</g>
<!-- //:.aspect_rules_js/node_modules/is&#45;number@6.0.0/pkg -->
<g id="node17" class="node">
<title>//:.aspect_rules_js/node_modules/is&#45;number@6.0.0/pkg</title>
<polygon fill="none" stroke="black" points="764.75,-396 444.25,-396 444.25,-360 764.75,-360 764.75,-396"/>
<text text-anchor="middle" x="604.5" y="-372.95" font-family="Times,serif" font-size="14.00">//:.aspect_rules_js/node_modules/is&#45;number@6.0.0/pkg</text>
</g>
<!-- //:.aspect_rules_js/node_modules/is&#45;odd@3.0.1&#45;&gt;//:.aspect_rules_js/node_modules/is&#45;number@6.0.0/pkg -->
<g id="edge18" class="edge">
<title>//:.aspect_rules_js/node_modules/is&#45;odd@3.0.1&#45;&gt;//:.aspect_rules_js/node_modules/is&#45;number@6.0.0/pkg</title>
<path fill="none" stroke="black" d="M351.67,-431.52C399.71,-421.54 460.07,-409 509.77,-398.68"/>
<polygon fill="black" stroke="black" points="510.45,-401.9 519.53,-396.44 509.02,-395.05 510.45,-401.9"/>
</g>
<!-- //:.aspect_rules_js/node_modules/is&#45;odd@3.0.1/pkg -->
<g id="node24" class="node">
<title>//:.aspect_rules_js/node_modules/is&#45;odd@3.0.1/pkg</title>
<polygon fill="none" stroke="black" points="413.88,-396 115.12,-396 115.12,-360 413.88,-360 413.88,-396"/>
<text text-anchor="middle" x="264.5" y="-372.95" font-family="Times,serif" font-size="14.00">//:.aspect_rules_js/node_modules/is&#45;odd@3.0.1/pkg</text>
</g>
<!-- //:.aspect_rules_js/node_modules/is&#45;odd@3.0.1&#45;&gt;//:.aspect_rules_js/node_modules/is&#45;odd@3.0.1/pkg -->
<g id="edge19" class="edge">
<title>//:.aspect_rules_js/node_modules/is&#45;odd@3.0.1&#45;&gt;//:.aspect_rules_js/node_modules/is&#45;odd@3.0.1/pkg</title>
<path fill="none" stroke="black" d="M266.76,-431.7C266.44,-424.24 266.06,-415.32 265.7,-406.97"/>
<polygon fill="black" stroke="black" points="269.16,-406.95 265.23,-397.1 262.16,-407.25 269.16,-406.95"/>
</g>
<!-- //:.aspect_rules_js/node_modules/@aspect&#45;test+b@5.0.2/dir -->
<g id="node5" class="node">
<title>//:.aspect_rules_js/node_modules/@aspect&#45;test+b@5.0.2/dir</title>
<polygon fill="none" stroke="black" points="1209.75,-540 865.25,-540 865.25,-504 1209.75,-504 1209.75,-540"/>
<text text-anchor="middle" x="1037.5" y="-516.95" font-family="Times,serif" font-size="14.00">//:.aspect_rules_js/node_modules/@aspect&#45;test+b@5.0.2/dir</text>
</g>
<!-- //:.aspect_rules_js/node_modules/@aspect&#45;test+b@5.0.2 -->
<g id="node6" class="node">
<title>//:.aspect_rules_js/node_modules/@aspect&#45;test+b@5.0.2</title>
<polygon fill="none" stroke="black" points="1486.38,-468 1160.62,-468 1160.62,-432 1486.38,-432 1486.38,-468"/>
<text text-anchor="middle" x="1323.5" y="-444.95" font-family="Times,serif" font-size="14.00">//:.aspect_rules_js/node_modules/@aspect&#45;test+b@5.0.2</text>
</g>
<!-- //:.aspect_rules_js/node_modules/@aspect&#45;test+b@5.0.2/dir&#45;&gt;//:.aspect_rules_js/node_modules/@aspect&#45;test+b@5.0.2 -->
<g id="edge3" class="edge">
<title>//:.aspect_rules_js/node_modules/@aspect&#45;test+b@5.0.2/dir&#45;&gt;//:.aspect_rules_js/node_modules/@aspect&#45;test+b@5.0.2</title>
<path fill="none" stroke="black" d="M1108.93,-503.52C1149.35,-493.62 1200.05,-481.22 1242.01,-470.94"/>
<polygon fill="black" stroke="black" points="1242.6,-474.16 1251.48,-468.38 1240.94,-467.36 1242.6,-474.16"/>
</g>
<!-- //:.aspect_rules_js/node_modules/@aspect&#45;test+a@5.0.2/pkg -->
<g id="node11" class="node">
<title>//:.aspect_rules_js/node_modules/@aspect&#45;test+a@5.0.2/pkg</title>
<polygon fill="none" stroke="black" points="1144,-396 795,-396 795,-360 1144,-360 1144,-396"/>
<text text-anchor="middle" x="969.5" y="-372.95" font-family="Times,serif" font-size="14.00">//:.aspect_rules_js/node_modules/@aspect&#45;test+a@5.0.2/pkg</text>
</g>
<!-- //:.aspect_rules_js/node_modules/@aspect&#45;test+b@5.0.2&#45;&gt;//:.aspect_rules_js/node_modules/@aspect&#45;test+a@5.0.2/pkg -->
<g id="edge23" class="edge">
<title>//:.aspect_rules_js/node_modules/@aspect&#45;test+b@5.0.2&#45;&gt;//:.aspect_rules_js/node_modules/@aspect&#45;test+a@5.0.2/pkg</title>
<path fill="none" stroke="black" d="M1235.08,-431.52C1184.41,-421.5 1120.68,-408.89 1068.35,-398.55"/>
<polygon fill="black" stroke="black" points="1069.2,-394.95 1058.71,-396.44 1067.84,-401.82 1069.2,-394.95"/>
</g>
<!-- //:.aspect_rules_js/node_modules/@aspect&#45;test+b@5.0.2/pkg -->
<g id="node12" class="node">
<title>//:.aspect_rules_js/node_modules/@aspect&#45;test+b@5.0.2/pkg</title>
<polygon fill="none" stroke="black" points="1511.38,-396 1161.62,-396 1161.62,-360 1511.38,-360 1511.38,-396"/>
<text text-anchor="middle" x="1336.5" y="-372.95" font-family="Times,serif" font-size="14.00">//:.aspect_rules_js/node_modules/@aspect&#45;test+b@5.0.2/pkg</text>
</g>
<!-- //:.aspect_rules_js/node_modules/@aspect&#45;test+b@5.0.2&#45;&gt;//:.aspect_rules_js/node_modules/@aspect&#45;test+b@5.0.2/pkg -->
<g id="edge24" class="edge">
<title>//:.aspect_rules_js/node_modules/@aspect&#45;test+b@5.0.2&#45;&gt;//:.aspect_rules_js/node_modules/@aspect&#45;test+b@5.0.2/pkg</title>
<path fill="none" stroke="black" d="M1326.71,-431.7C1328.11,-424.15 1329.79,-415.12 1331.36,-406.68"/>
<polygon fill="black" stroke="black" points="1334.94,-407.58 1333.32,-397.1 1328.06,-406.3 1334.94,-407.58"/>
</g>
<!-- //:.aspect_rules_js/node_modules/@aspect&#45;test+c@2.0.2/pkg -->
<g id="node13" class="node">
<title>//:.aspect_rules_js/node_modules/@aspect&#45;test+c@2.0.2/pkg</title>
<polygon fill="none" stroke="black" points="2374,-396 2025,-396 2025,-360 2374,-360 2374,-396"/>
<text text-anchor="middle" x="2199.5" y="-372.95" font-family="Times,serif" font-size="14.00">//:.aspect_rules_js/node_modules/@aspect&#45;test+c@2.0.2/pkg</text>
</g>
<!-- //:.aspect_rules_js/node_modules/@aspect&#45;test+b@5.0.2&#45;&gt;//:.aspect_rules_js/node_modules/@aspect&#45;test+c@2.0.2/pkg -->
<g id="edge25" class="edge">
<title>//:.aspect_rules_js/node_modules/@aspect&#45;test+b@5.0.2&#45;&gt;//:.aspect_rules_js/node_modules/@aspect&#45;test+c@2.0.2/pkg</title>
<path fill="none" stroke="black" d="M1486.45,-432.77C1489.49,-432.51 1492.51,-432.25 1495.5,-432 1723.29,-412.88 1783.34,-414.68 2013.92,-396.2"/>
<polygon fill="black" stroke="black" points="2013.99,-399.62 2023.67,-395.33 2013.42,-392.65 2013.99,-399.62"/>
</g>
<!-- //:.aspect_rules_js/node_modules/@aspect&#45;test+d@2.0.0_at_aspect&#45;test_c_2.0.2/pkg -->
<g id="node14" class="node">
<title>//:.aspect_rules_js/node_modules/@aspect&#45;test+d@2.0.0_at_aspect&#45;test_c_2.0.2/pkg</title>
<polygon fill="none" stroke="black" points="2007.12,-396 1529.88,-396 1529.88,-360 2007.12,-360 2007.12,-396"/>
<text text-anchor="middle" x="1768.5" y="-372.95" font-family="Times,serif" font-size="14.00">//:.aspect_rules_js/node_modules/@aspect&#45;test+d@2.0.0_at_aspect&#45;test_c_2.0.2/pkg</text>
</g>
<!-- //:.aspect_rules_js/node_modules/@aspect&#45;test+b@5.0.2&#45;&gt;//:.aspect_rules_js/node_modules/@aspect&#45;test+d@2.0.0_at_aspect&#45;test_c_2.0.2/pkg -->
<g id="edge26" class="edge">
<title>//:.aspect_rules_js/node_modules/@aspect&#45;test+b@5.0.2&#45;&gt;//:.aspect_rules_js/node_modules/@aspect&#45;test+d@2.0.0_at_aspect&#45;test_c_2.0.2/pkg</title>
<path fill="none" stroke="black" d="M1434.64,-431.52C1499.28,-421.35 1580.8,-408.53 1647.11,-398.1"/>
<polygon fill="black" stroke="black" points="1647.28,-401.45 1656.62,-396.44 1646.19,-394.54 1647.28,-401.45"/>
</g>
<!-- //:write_npm_translate_lock_tests -->
<g id="node7" class="node">
<title>//:write_npm_translate_lock_tests</title>
<polygon fill="none" stroke="black" points="986.38,-782.5 786.62,-782.5 786.62,-746.5 986.38,-746.5 986.38,-782.5"/>
<text text-anchor="middle" x="886.5" y="-759.45" font-family="Times,serif" font-size="14.00">//:write_npm_translate_lock_tests</text>
</g>
<!-- //:write_npm_translate_lock_2_test\n//:write_npm_translate_lock_0_test\n//:write_npm_translate_lock_1_test -->
<g id="node8" class="node">
<title>//:write_npm_translate_lock_2_test\n//:write_npm_translate_lock_0_test\n//:write_npm_translate_lock_1_test</title>
<polygon fill="none" stroke="black" points="990.5,-710.5 782.5,-710.5 782.5,-653 990.5,-653 990.5,-710.5"/>
<text text-anchor="middle" x="886.5" y="-693.2" font-family="Times,serif" font-size="14.00">//:write_npm_translate_lock_2_test</text>
<text text-anchor="middle" x="886.5" y="-676.7" font-family="Times,serif" font-size="14.00">//:write_npm_translate_lock_0_test</text>
<text text-anchor="middle" x="886.5" y="-660.2" font-family="Times,serif" font-size="14.00">//:write_npm_translate_lock_1_test</text>
</g>
<!-- //:write_npm_translate_lock_tests&#45;&gt;//:write_npm_translate_lock_2_test\n//:write_npm_translate_lock_0_test\n//:write_npm_translate_lock_1_test -->
<g id="edge4" class="edge">
<title>//:write_npm_translate_lock_tests&#45;&gt;//:write_npm_translate_lock_2_test\n//:write_npm_translate_lock_0_test\n//:write_npm_translate_lock_1_test</title>
<path fill="none" stroke="black" d="M886.5,-746.38C886.5,-739.15 886.5,-730.41 886.5,-721.76"/>
<polygon fill="black" stroke="black" points="890,-721.97 886.5,-711.97 883,-721.97 890,-721.97"/>
</g>
<!-- //:.aspect_rules_js/node_modules/@aspect&#45;test+a@5.0.2/dir -->
<g id="node9" class="node">
<title>//:.aspect_rules_js/node_modules/@aspect&#45;test+a@5.0.2/dir</title>
<polygon fill="none" stroke="black" points="1828.38,-540 1484.62,-540 1484.62,-504 1828.38,-504 1828.38,-540"/>
<text text-anchor="middle" x="1656.5" y="-516.95" font-family="Times,serif" font-size="14.00">//:.aspect_rules_js/node_modules/@aspect&#45;test+a@5.0.2/dir</text>
</g>
<!-- //:.aspect_rules_js/node_modules/@aspect&#45;test+a@5.0.2 -->
<g id="node10" class="node">
<title>//:.aspect_rules_js/node_modules/@aspect&#45;test+a@5.0.2</title>
<polygon fill="none" stroke="black" points="1829,-468 1504,-468 1504,-432 1829,-432 1829,-468"/>
<text text-anchor="middle" x="1666.5" y="-444.95" font-family="Times,serif" font-size="14.00">//:.aspect_rules_js/node_modules/@aspect&#45;test+a@5.0.2</text>
</g>
<!-- //:.aspect_rules_js/node_modules/@aspect&#45;test+a@5.0.2/dir&#45;&gt;//:.aspect_rules_js/node_modules/@aspect&#45;test+a@5.0.2 -->
<g id="edge5" class="edge">
<title>//:.aspect_rules_js/node_modules/@aspect&#45;test+a@5.0.2/dir&#45;&gt;//:.aspect_rules_js/node_modules/@aspect&#45;test+a@5.0.2</title>
<path fill="none" stroke="black" d="M1658.97,-503.7C1660.04,-496.24 1661.31,-487.32 1662.5,-478.97"/>
<polygon fill="black" stroke="black" points="1666.11,-479.5 1664.06,-469.1 1659.18,-478.51 1666.11,-479.5"/>
</g>
<!-- //:.aspect_rules_js/node_modules/@aspect&#45;test+a@5.0.2&#45;&gt;//:.aspect_rules_js/node_modules/@aspect&#45;test+a@5.0.2/pkg -->
<g id="edge6" class="edge">
<title>//:.aspect_rules_js/node_modules/@aspect&#45;test+a@5.0.2&#45;&gt;//:.aspect_rules_js/node_modules/@aspect&#45;test+a@5.0.2/pkg</title>
<path fill="none" stroke="black" d="M1503.52,-432.63C1398.98,-422.13 1263.01,-408.48 1154.43,-397.57"/>
<polygon fill="black" stroke="black" points="1154.97,-394.01 1144.67,-396.49 1154.27,-400.97 1154.97,-394.01"/>
</g>
<!-- //:.aspect_rules_js/node_modules/@aspect&#45;test+a@5.0.2&#45;&gt;//:.aspect_rules_js/node_modules/@aspect&#45;test+b@5.0.2/pkg -->
<g id="edge7" class="edge">
<title>//:.aspect_rules_js/node_modules/@aspect&#45;test+a@5.0.2&#45;&gt;//:.aspect_rules_js/node_modules/@aspect&#45;test+b@5.0.2/pkg</title>
<path fill="none" stroke="black" d="M1584.08,-431.52C1537.04,-421.54 1477.93,-409 1429.26,-398.68"/>
<polygon fill="black" stroke="black" points="1430.24,-395.09 1419.73,-396.44 1428.78,-401.94 1430.24,-395.09"/>
</g>
<!-- //:.aspect_rules_js/node_modules/@aspect&#45;test+a@5.0.2&#45;&gt;//:.aspect_rules_js/node_modules/@aspect&#45;test+c@2.0.2/pkg -->
<g id="edge8" class="edge">
<title>//:.aspect_rules_js/node_modules/@aspect&#45;test+a@5.0.2&#45;&gt;//:.aspect_rules_js/node_modules/@aspect&#45;test+c@2.0.2/pkg</title>
<path fill="none" stroke="black" d="M1799.62,-431.52C1877.68,-421.27 1976.29,-408.31 2056.06,-397.84"/>
<polygon fill="black" stroke="black" points="2056.23,-401.21 2065.69,-396.44 2055.32,-394.27 2056.23,-401.21"/>
</g>
<!-- //:.aspect_rules_js/node_modules/@aspect&#45;test+a@5.0.2&#45;&gt;//:.aspect_rules_js/node_modules/@aspect&#45;test+d@2.0.0_at_aspect&#45;test_c_2.0.2/pkg -->
<g id="edge9" class="edge">
<title>//:.aspect_rules_js/node_modules/@aspect&#45;test+a@5.0.2&#45;&gt;//:.aspect_rules_js/node_modules/@aspect&#45;test+d@2.0.0_at_aspect&#45;test_c_2.0.2/pkg</title>
<path fill="none" stroke="black" d="M1691.98,-431.52C1704.85,-422.68 1720.65,-411.84 1734.54,-402.3"/>
<polygon fill="black" stroke="black" points="1736.08,-404.8 1742.35,-396.26 1732.12,-399.03 1736.08,-404.8"/>
</g>
<!-- //:.aspect_rules_js/node_modules/@aspect&#45;test+b@5.0.2/ref -->
<g id="node27" class="node">
<title>//:.aspect_rules_js/node_modules/@aspect&#45;test+b@5.0.2/ref</title>
<polygon fill="none" stroke="black" points="738.75,-324 394.25,-324 394.25,-288 738.75,-288 738.75,-324"/>
<text text-anchor="middle" x="566.5" y="-300.95" font-family="Times,serif" font-size="14.00">//:.aspect_rules_js/node_modules/@aspect&#45;test+b@5.0.2/ref</text>
</g>
<!-- //:.aspect_rules_js/node_modules/@aspect&#45;test+a@5.0.2/pkg&#45;&gt;//:.aspect_rules_js/node_modules/@aspect&#45;test+b@5.0.2/ref -->
<g id="edge27" class="edge">
<title>//:.aspect_rules_js/node_modules/@aspect&#45;test+a@5.0.2/pkg&#45;&gt;//:.aspect_rules_js/node_modules/@aspect&#45;test+b@5.0.2/ref</title>
<path fill="none" stroke="black" d="M868.85,-359.52C810.67,-349.41 737.39,-336.68 677.55,-326.29"/>
<polygon fill="black" stroke="black" points="678.37,-322.71 667.92,-324.44 677.17,-329.6 678.37,-322.71"/>
</g>
<!-- //:.aspect_rules_js/node_modules/@aspect&#45;test+c@2.0.2/ref -->
<g id="node28" class="node">
<title>//:.aspect_rules_js/node_modules/@aspect&#45;test+c@2.0.2/ref</title>
<polygon fill="none" stroke="black" points="1590.38,-324 1246.62,-324 1246.62,-288 1590.38,-288 1590.38,-324"/>
<text text-anchor="middle" x="1418.5" y="-300.95" font-family="Times,serif" font-size="14.00">//:.aspect_rules_js/node_modules/@aspect&#45;test+c@2.0.2/ref</text>
</g>
<!-- //:.aspect_rules_js/node_modules/@aspect&#45;test+a@5.0.2/pkg&#45;&gt;//:.aspect_rules_js/node_modules/@aspect&#45;test+c@2.0.2/ref -->
<g id="edge28" class="edge">
<title>//:.aspect_rules_js/node_modules/@aspect&#45;test+a@5.0.2/pkg&#45;&gt;//:.aspect_rules_js/node_modules/@aspect&#45;test+c@2.0.2/ref</title>
<path fill="none" stroke="black" d="M1081.64,-359.52C1146.86,-349.35 1229.11,-336.53 1296.02,-326.1"/>
<polygon fill="black" stroke="black" points="1296.28,-329.44 1305.62,-324.44 1295.2,-322.52 1296.28,-329.44"/>
</g>
<!-- //:.aspect_rules_js/node_modules/@aspect&#45;test+d@2.0.0_at_aspect&#45;test_c_2.0.2/ref -->
<g id="node29" class="node">
<title>//:.aspect_rules_js/node_modules/@aspect&#45;test+d@2.0.0_at_aspect&#45;test_c_2.0.2/ref</title>
<polygon fill="none" stroke="black" points="1228.5,-324 756.5,-324 756.5,-288 1228.5,-288 1228.5,-324"/>
<text text-anchor="middle" x="992.5" y="-300.95" font-family="Times,serif" font-size="14.00">//:.aspect_rules_js/node_modules/@aspect&#45;test+d@2.0.0_at_aspect&#45;test_c_2.0.2/ref</text>
</g>
<!-- //:.aspect_rules_js/node_modules/@aspect&#45;test+a@5.0.2/pkg&#45;&gt;//:.aspect_rules_js/node_modules/@aspect&#45;test+d@2.0.0_at_aspect&#45;test_c_2.0.2/ref -->
<g id="edge29" class="edge">
<title>//:.aspect_rules_js/node_modules/@aspect&#45;test+a@5.0.2/pkg&#45;&gt;//:.aspect_rules_js/node_modules/@aspect&#45;test+d@2.0.0_at_aspect&#45;test_c_2.0.2/ref</title>
<path fill="none" stroke="black" d="M975.19,-359.7C977.69,-352.07 980.7,-342.92 983.5,-334.4"/>
<polygon fill="black" stroke="black" points="987.08,-335.7 986.88,-325.1 980.43,-333.51 987.08,-335.7"/>
</g>
<!-- //:.aspect_rules_js/node_modules/@aspect&#45;test+b@5.0.2/pkg&#45;&gt;//:.aspect_rules_js/node_modules/@aspect&#45;test+c@2.0.2/ref -->
<g id="edge33" class="edge">
<title>//:.aspect_rules_js/node_modules/@aspect&#45;test+b@5.0.2/pkg&#45;&gt;//:.aspect_rules_js/node_modules/@aspect&#45;test+c@2.0.2/ref</title>
<path fill="none" stroke="black" d="M1356.77,-359.7C1366.82,-351.11 1379.13,-340.61 1390.11,-331.24"/>
<polygon fill="black" stroke="black" points="1391.85,-333.5 1397.18,-324.35 1387.3,-328.18 1391.85,-333.5"/>
</g>
<!-- //:.aspect_rules_js/node_modules/@aspect&#45;test+b@5.0.2/pkg&#45;&gt;//:.aspect_rules_js/node_modules/@aspect&#45;test+d@2.0.0_at_aspect&#45;test_c_2.0.2/ref -->
<g id="edge34" class="edge">
<title>//:.aspect_rules_js/node_modules/@aspect&#45;test+b@5.0.2/pkg&#45;&gt;//:.aspect_rules_js/node_modules/@aspect&#45;test+d@2.0.0_at_aspect&#45;test_c_2.0.2/ref</title>
<path fill="none" stroke="black" d="M1250.58,-359.52C1201.44,-349.52 1139.67,-336.95 1088.88,-326.61"/>
<polygon fill="black" stroke="black" points="1089.71,-323.01 1079.22,-324.44 1088.32,-329.87 1089.71,-323.01"/>
</g>
<!-- //:.aspect_rules_js/node_modules/@aspect&#45;test+a@5.0.2/ref -->
<g id="node33" class="node">
<title>//:.aspect_rules_js/node_modules/@aspect&#45;test+a@5.0.2/ref</title>
<polygon fill="none" stroke="black" points="1952.38,-324 1608.62,-324 1608.62,-288 1952.38,-288 1952.38,-324"/>
<text text-anchor="middle" x="1780.5" y="-300.95" font-family="Times,serif" font-size="14.00">//:.aspect_rules_js/node_modules/@aspect&#45;test+a@5.0.2/ref</text>
</g>
<!-- //:.aspect_rules_js/node_modules/@aspect&#45;test+b@5.0.2/pkg&#45;&gt;//:.aspect_rules_js/node_modules/@aspect&#45;test+a@5.0.2/ref -->
<g id="edge32" class="edge">
<title>//:.aspect_rules_js/node_modules/@aspect&#45;test+b@5.0.2/pkg&#45;&gt;//:.aspect_rules_js/node_modules/@aspect&#45;test+a@5.0.2/ref</title>
<path fill="none" stroke="black" d="M1447.39,-359.52C1511.88,-349.35 1593.22,-336.53 1659.38,-326.1"/>
<polygon fill="black" stroke="black" points="1659.53,-329.46 1668.87,-324.44 1658.44,-322.54 1659.53,-329.46"/>
</g>
<!-- //:.aspect_rules_js/node_modules/@aspect&#45;test+c@2.0.2/pkg_lc -->
<g id="node36" class="node">
<title>//:.aspect_rules_js/node_modules/@aspect&#45;test+c@2.0.2/pkg_lc</title>
<polygon fill="none" stroke="black" points="2382.25,-324 2016.75,-324 2016.75,-288 2382.25,-288 2382.25,-324"/>
<text text-anchor="middle" x="2199.5" y="-300.95" font-family="Times,serif" font-size="14.00">//:.aspect_rules_js/node_modules/@aspect&#45;test+c@2.0.2/pkg_lc</text>
</g>
<!-- //:.aspect_rules_js/node_modules/@aspect&#45;test+c@2.0.2/pkg&#45;&gt;//:.aspect_rules_js/node_modules/@aspect&#45;test+c@2.0.2/pkg_lc -->
<g id="edge39" class="edge">
<title>//:.aspect_rules_js/node_modules/@aspect&#45;test+c@2.0.2/pkg&#45;&gt;//:.aspect_rules_js/node_modules/@aspect&#45;test+c@2.0.2/pkg_lc</title>
<path fill="none" stroke="black" d="M2199.5,-359.7C2199.5,-352.24 2199.5,-343.32 2199.5,-334.97"/>
<polygon fill="black" stroke="black" points="2203,-335.1 2199.5,-325.1 2196,-335.1 2203,-335.1"/>
</g>
<!-- //:.aspect_rules_js/node_modules/@aspect&#45;test+d@2.0.0_at_aspect&#45;test_c_2.0.2/pkg&#45;&gt;//:.aspect_rules_js/node_modules/@aspect&#45;test+c@2.0.2/ref -->
<g id="edge38" class="edge">
<title>//:.aspect_rules_js/node_modules/@aspect&#45;test+d@2.0.0_at_aspect&#45;test_c_2.0.2/pkg&#45;&gt;//:.aspect_rules_js/node_modules/@aspect&#45;test+c@2.0.2/ref</title>
<path fill="none" stroke="black" d="M1681.08,-359.52C1630.98,-349.5 1567.97,-336.89 1516.24,-326.55"/>
<polygon fill="black" stroke="black" points="1517.2,-322.97 1506.71,-324.44 1515.83,-329.84 1517.2,-322.97"/>
</g>
<!-- //:.aspect_rules_js/node_modules/is&#45;number@6.0.0/dir -->
<g id="node15" class="node">
<title>//:.aspect_rules_js/node_modules/is&#45;number@6.0.0/dir</title>
<polygon fill="none" stroke="black" points="798.12,-540 482.88,-540 482.88,-504 798.12,-504 798.12,-540"/>
<text text-anchor="middle" x="640.5" y="-516.95" font-family="Times,serif" font-size="14.00">//:.aspect_rules_js/node_modules/is&#45;number@6.0.0/dir</text>
</g>
<!-- //:.aspect_rules_js/node_modules/is&#45;number@6.0.0 -->
<g id="node16" class="node">
<title>//:.aspect_rules_js/node_modules/is&#45;number@6.0.0</title>
<polygon fill="none" stroke="black" points="776.75,-468 480.25,-468 480.25,-432 776.75,-432 776.75,-468"/>
<text text-anchor="middle" x="628.5" y="-444.95" font-family="Times,serif" font-size="14.00">//:.aspect_rules_js/node_modules/is&#45;number@6.0.0</text>
</g>
<!-- //:.aspect_rules_js/node_modules/is&#45;number@6.0.0/dir&#45;&gt;//:.aspect_rules_js/node_modules/is&#45;number@6.0.0 -->
<g id="edge10" class="edge">
<title>//:.aspect_rules_js/node_modules/is&#45;number@6.0.0/dir&#45;&gt;//:.aspect_rules_js/node_modules/is&#45;number@6.0.0</title>
<path fill="none" stroke="black" d="M637.53,-503.7C636.24,-496.15 634.69,-487.12 633.25,-478.68"/>
<polygon fill="black" stroke="black" points="636.57,-478.37 631.43,-469.1 629.67,-479.55 636.57,-478.37"/>
</g>
<!-- //:.aspect_rules_js/node_modules/is&#45;number@6.0.0&#45;&gt;//:.aspect_rules_js/node_modules/is&#45;number@6.0.0/pkg -->
<g id="edge11" class="edge">
<title>//:.aspect_rules_js/node_modules/is&#45;number@6.0.0&#45;&gt;//:.aspect_rules_js/node_modules/is&#45;number@6.0.0/pkg</title>
<path fill="none" stroke="black" d="M622.57,-431.7C619.95,-424.07 616.81,-414.92 613.89,-406.4"/>
<polygon fill="black" stroke="black" points="616.92,-405.43 610.36,-397.1 610.3,-407.7 616.92,-405.43"/>
</g>
<!-- //:write_npm_translate_lock -->
<g id="node18" class="node">
<title>//:write_npm_translate_lock</title>
<polygon fill="none" stroke="black" points="1184,-782.5 1015,-782.5 1015,-746.5 1184,-746.5 1184,-782.5"/>
<text text-anchor="middle" x="1099.5" y="-759.45" font-family="Times,serif" font-size="14.00">//:write_npm_translate_lock</text>
</g>
<!-- //:write_npm_translate_lock_1\n//:write_npm_translate_lock_2\n//:write_npm_translate_lock_0 -->
<g id="node19" class="node">
<title>//:write_npm_translate_lock_1\n//:write_npm_translate_lock_2\n//:write_npm_translate_lock_0</title>
<polygon fill="none" stroke="black" points="1190.75,-710.5 1008.25,-710.5 1008.25,-653 1190.75,-653 1190.75,-710.5"/>
<text text-anchor="middle" x="1099.5" y="-693.2" font-family="Times,serif" font-size="14.00">//:write_npm_translate_lock_1</text>
<text text-anchor="middle" x="1099.5" y="-676.7" font-family="Times,serif" font-size="14.00">//:write_npm_translate_lock_2</text>
<text text-anchor="middle" x="1099.5" y="-660.2" font-family="Times,serif" font-size="14.00">//:write_npm_translate_lock_0</text>
</g>
<!-- //:write_npm_translate_lock&#45;&gt;//:write_npm_translate_lock_1\n//:write_npm_translate_lock_2\n//:write_npm_translate_lock_0 -->
<g id="edge12" class="edge">
<title>//:write_npm_translate_lock&#45;&gt;//:write_npm_translate_lock_1\n//:write_npm_translate_lock_2\n//:write_npm_translate_lock_0</title>
<path fill="none" stroke="black" d="M1099.5,-746.38C1099.5,-739.15 1099.5,-730.41 1099.5,-721.76"/>
<polygon fill="black" stroke="black" points="1103,-721.97 1099.5,-711.97 1096,-721.97 1103,-721.97"/>
</g>
<!-- //:test -->
<g id="node20" class="node">
<title>//:test</title>
<polygon fill="none" stroke="black" points="742.5,-782.5 688.5,-782.5 688.5,-746.5 742.5,-746.5 742.5,-782.5"/>
<text text-anchor="middle" x="715.5" y="-759.45" font-family="Times,serif" font-size="14.00">//:test</text>
</g>
<!-- //:test_0__deps -->
<g id="node21" class="node">
<title>//:test_0__deps</title>
<polygon fill="none" stroke="black" points="764.38,-699.75 666.62,-699.75 666.62,-663.75 764.38,-663.75 764.38,-699.75"/>
<text text-anchor="middle" x="715.5" y="-676.7" font-family="Times,serif" font-size="14.00">//:test_0__deps</text>
</g>
<!-- //:test&#45;&gt;//:test_0__deps -->
<g id="edge13" class="edge">
<title>//:test&#45;&gt;//:test_0__deps</title>
<path fill="none" stroke="black" d="M715.5,-746.38C715.5,-736.06 715.5,-722.67 715.5,-710.84"/>
<polygon fill="black" stroke="black" points="719,-711.13 715.5,-701.13 712,-711.13 719,-711.13"/>
</g>
<!-- //:node_modules -->
<g id="node22" class="node">
<title>//:node_modules</title>
<polygon fill="none" stroke="black" points="768.88,-614.5 662.12,-614.5 662.12,-578.5 768.88,-578.5 768.88,-614.5"/>
<text text-anchor="middle" x="715.5" y="-591.45" font-family="Times,serif" font-size="14.00">//:node_modules</text>
</g>
<!-- //:test_0__deps&#45;&gt;//:node_modules -->
<g id="edge14" class="edge">
<title>//:test_0__deps&#45;&gt;//:node_modules</title>
<path fill="none" stroke="black" d="M715.5,-663.5C715.5,-652.56 715.5,-638.15 715.5,-625.59"/>
<polygon fill="black" stroke="black" points="719,-625.73 715.5,-615.73 712,-625.73 719,-625.73"/>
</g>
<!-- //:node_modules&#45;&gt;//:node_modules/is&#45;odd -->
<g id="edge16" class="edge">
<title>//:node_modules&#45;&gt;//:node_modules/is&#45;odd</title>
<path fill="none" stroke="black" d="M661.88,-592.03C564.66,-585.33 352.68,-568.8 164.5,-540.22"/>
<polygon fill="black" stroke="black" points="165.27,-536.64 154.85,-538.59 164.21,-543.56 165.27,-536.64"/>
</g>
<!-- //:node_modules/@aspect&#45;test/b -->
<g id="node23" class="node">
<title>//:node_modules/@aspect&#45;test/b</title>
<polygon fill="none" stroke="black" points="1418.88,-540 1228.12,-540 1228.12,-504 1418.88,-504 1418.88,-540"/>
<text text-anchor="middle" x="1323.5" y="-516.95" font-family="Times,serif" font-size="14.00">//:node_modules/@aspect&#45;test/b</text>
</g>
<!-- //:node_modules&#45;&gt;//:node_modules/@aspect&#45;test/b -->
<g id="edge15" class="edge">
<title>//:node_modules&#45;&gt;//:node_modules/@aspect&#45;test/b</title>
<path fill="none" stroke="black" d="M769.21,-590.47C859.38,-581.84 1047.17,-563.02 1216.79,-540.19"/>
<polygon fill="black" stroke="black" points="1217.24,-543.53 1226.68,-538.72 1216.3,-536.59 1217.24,-543.53"/>
</g>
<!-- //:node_modules/@aspect&#45;test/b&#45;&gt;//:.aspect_rules_js/node_modules/@aspect&#45;test+b@5.0.2 -->
<g id="edge22" class="edge">
<title>//:node_modules/@aspect&#45;test/b&#45;&gt;//:.aspect_rules_js/node_modules/@aspect&#45;test+b@5.0.2</title>
<path fill="none" stroke="black" d="M1323.5,-503.7C1323.5,-496.24 1323.5,-487.32 1323.5,-478.97"/>
<polygon fill="black" stroke="black" points="1327,-479.1 1323.5,-469.1 1320,-479.1 1327,-479.1"/>
</g>
<!-- //:.aspect_rules_js/node_modules/is&#45;number@6.0.0/ref -->
<g id="node25" class="node">
<title>//:.aspect_rules_js/node_modules/is&#45;number@6.0.0/ref</title>
<polygon fill="none" stroke="black" points="376.12,-324 60.88,-324 60.88,-288 376.12,-288 376.12,-324"/>
<text text-anchor="middle" x="218.5" y="-300.95" font-family="Times,serif" font-size="14.00">//:.aspect_rules_js/node_modules/is&#45;number@6.0.0/ref</text>
</g>
<!-- //:.aspect_rules_js/node_modules/is&#45;odd@3.0.1/pkg&#45;&gt;//:.aspect_rules_js/node_modules/is&#45;number@6.0.0/ref -->
<g id="edge20" class="edge">
<title>//:.aspect_rules_js/node_modules/is&#45;odd@3.0.1/pkg&#45;&gt;//:.aspect_rules_js/node_modules/is&#45;number@6.0.0/ref</title>
<path fill="none" stroke="black" d="M253.13,-359.7C247.89,-351.73 241.57,-342.1 235.76,-333.26"/>
<polygon fill="black" stroke="black" points="238.16,-331.54 229.74,-325.1 232.31,-335.38 238.16,-331.54"/>
</g>
<!-- //:node_modules/@aspect&#45;test\n//:node_modules/@aspect&#45;test/b/dir -->
<g id="node26" class="node">
<title>//:node_modules/@aspect&#45;test\n//:node_modules/@aspect&#45;test/b/dir</title>
<polygon fill="none" stroke="black" points="1428.25,-617 1218.75,-617 1218.75,-576 1428.25,-576 1428.25,-617"/>
<text text-anchor="middle" x="1323.5" y="-599.7" font-family="Times,serif" font-size="14.00">//:node_modules/@aspect&#45;test</text>
<text text-anchor="middle" x="1323.5" y="-583.2" font-family="Times,serif" font-size="14.00">//:node_modules/@aspect&#45;test/b/dir</text>
</g>
<!-- //:node_modules/@aspect&#45;test\n//:node_modules/@aspect&#45;test/b/dir&#45;&gt;//:node_modules/@aspect&#45;test/b -->
<g id="edge21" class="edge">
<title>//:node_modules/@aspect&#45;test\n//:node_modules/@aspect&#45;test/b/dir&#45;&gt;//:node_modules/@aspect&#45;test/b</title>
<path fill="none" stroke="black" d="M1323.5,-575.69C1323.5,-568.17 1323.5,-559.44 1323.5,-551.29"/>
<polygon fill="black" stroke="black" points="1327,-551.32 1323.5,-541.32 1320,-551.32 1327,-551.32"/>
</g>
<!-- //:.aspect_rules_js/node_modules/@aspect&#45;test+c@2.0.2/dir -->
<g id="node30" class="node">
<title>//:.aspect_rules_js/node_modules/@aspect&#45;test+c@2.0.2/dir</title>
<polygon fill="none" stroke="black" points="2680.38,-540 2336.62,-540 2336.62,-504 2680.38,-504 2680.38,-540"/>
<text text-anchor="middle" x="2508.5" y="-516.95" font-family="Times,serif" font-size="14.00">//:.aspect_rules_js/node_modules/@aspect&#45;test+c@2.0.2/dir</text>
</g>
<!-- //:.aspect_rules_js/node_modules/@aspect&#45;test+c@2.0.2 -->
<g id="node31" class="node">
<title>//:.aspect_rules_js/node_modules/@aspect&#45;test+c@2.0.2</title>
<polygon fill="none" stroke="black" points="2661,-468 2336,-468 2336,-432 2661,-432 2661,-468"/>
<text text-anchor="middle" x="2498.5" y="-444.95" font-family="Times,serif" font-size="14.00">//:.aspect_rules_js/node_modules/@aspect&#45;test+c@2.0.2</text>
</g>
<!-- //:.aspect_rules_js/node_modules/@aspect&#45;test+c@2.0.2/dir&#45;&gt;//:.aspect_rules_js/node_modules/@aspect&#45;test+c@2.0.2 -->
<g id="edge30" class="edge">
<title>//:.aspect_rules_js/node_modules/@aspect&#45;test+c@2.0.2/dir&#45;&gt;//:.aspect_rules_js/node_modules/@aspect&#45;test+c@2.0.2</title>
<path fill="none" stroke="black" d="M2506.03,-503.7C2504.96,-496.24 2503.69,-487.32 2502.5,-478.97"/>
<polygon fill="black" stroke="black" points="2505.82,-478.51 2500.94,-469.1 2498.89,-479.5 2505.82,-478.51"/>
</g>
<!-- //:.aspect_rules_js/node_modules/@aspect&#45;test+c@2.0.2&#45;&gt;//:.aspect_rules_js/node_modules/@aspect&#45;test+c@2.0.2/pkg -->
<g id="edge31" class="edge">
<title>//:.aspect_rules_js/node_modules/@aspect&#45;test+c@2.0.2&#45;&gt;//:.aspect_rules_js/node_modules/@aspect&#45;test+c@2.0.2/pkg</title>
<path fill="none" stroke="black" d="M2423.82,-431.52C2381.55,-421.62 2328.54,-409.21 2284.66,-398.94"/>
<polygon fill="black" stroke="black" points="2285.54,-395.31 2275,-396.44 2283.94,-402.13 2285.54,-395.31"/>
</g>
<!-- //:.aspect_rules_js/node_modules/is&#45;odd@3.0.1/ref -->
<g id="node32" class="node">
<title>//:.aspect_rules_js/node_modules/is&#45;odd@3.0.1/ref</title>
<polygon fill="none" stroke="black" points="1495.25,-782.5 1201.75,-782.5 1201.75,-746.5 1495.25,-746.5 1495.25,-782.5"/>
<text text-anchor="middle" x="1348.5" y="-759.45" font-family="Times,serif" font-size="14.00">//:.aspect_rules_js/node_modules/is&#45;odd@3.0.1/ref</text>
</g>
<!-- //:.aspect_rules_js/node_modules/@aspect&#45;test+d@2.0.0_at_aspect&#45;test_c_2.0.2/dir -->
<g id="node34" class="node">
<title>//:.aspect_rules_js/node_modules/@aspect&#45;test+d@2.0.0_at_aspect&#45;test_c_2.0.2/dir</title>
<polygon fill="none" stroke="black" points="2318.5,-540 1846.5,-540 1846.5,-504 2318.5,-504 2318.5,-540"/>
<text text-anchor="middle" x="2082.5" y="-516.95" font-family="Times,serif" font-size="14.00">//:.aspect_rules_js/node_modules/@aspect&#45;test+d@2.0.0_at_aspect&#45;test_c_2.0.2/dir</text>
</g>
<!-- //:.aspect_rules_js/node_modules/@aspect&#45;test+d@2.0.0_at_aspect&#45;test_c_2.0.2 -->
<g id="node35" class="node">
<title>//:.aspect_rules_js/node_modules/@aspect&#45;test+d@2.0.0_at_aspect&#45;test_c_2.0.2</title>
<polygon fill="none" stroke="black" points="2309.12,-468 1855.88,-468 1855.88,-432 2309.12,-432 2309.12,-468"/>
<text text-anchor="middle" x="2082.5" y="-444.95" font-family="Times,serif" font-size="14.00">//:.aspect_rules_js/node_modules/@aspect&#45;test+d@2.0.0_at_aspect&#45;test_c_2.0.2</text>
</g>
<!-- //:.aspect_rules_js/node_modules/@aspect&#45;test+d@2.0.0_at_aspect&#45;test_c_2.0.2/dir&#45;&gt;//:.aspect_rules_js/node_modules/@aspect&#45;test+d@2.0.0_at_aspect&#45;test_c_2.0.2 -->
<g id="edge35" class="edge">
<title>//:.aspect_rules_js/node_modules/@aspect&#45;test+d@2.0.0_at_aspect&#45;test_c_2.0.2/dir&#45;&gt;//:.aspect_rules_js/node_modules/@aspect&#45;test+d@2.0.0_at_aspect&#45;test_c_2.0.2</title>
<path fill="none" stroke="black" d="M2082.5,-503.7C2082.5,-496.24 2082.5,-487.32 2082.5,-478.97"/>
<polygon fill="black" stroke="black" points="2086,-479.1 2082.5,-469.1 2079,-479.1 2086,-479.1"/>
</g>
<!-- //:.aspect_rules_js/node_modules/@aspect&#45;test+d@2.0.0_at_aspect&#45;test_c_2.0.2&#45;&gt;//:.aspect_rules_js/node_modules/@aspect&#45;test+c@2.0.2/pkg -->
<g id="edge36" class="edge">
<title>//:.aspect_rules_js/node_modules/@aspect&#45;test+d@2.0.0_at_aspect&#45;test_c_2.0.2&#45;&gt;//:.aspect_rules_js/node_modules/@aspect&#45;test+c@2.0.2/pkg</title>
<path fill="none" stroke="black" d="M2111.72,-431.52C2126.77,-422.51 2145.31,-411.42 2161.46,-401.76"/>
<polygon fill="black" stroke="black" points="2162.87,-404.4 2169.65,-396.26 2159.27,-398.39 2162.87,-404.4"/>
</g>
<!-- //:.aspect_rules_js/node_modules/@aspect&#45;test+d@2.0.0_at_aspect&#45;test_c_2.0.2&#45;&gt;//:.aspect_rules_js/node_modules/@aspect&#45;test+d@2.0.0_at_aspect&#45;test_c_2.0.2/pkg -->
<g id="edge37" class="edge">
<title>//:.aspect_rules_js/node_modules/@aspect&#45;test+d@2.0.0_at_aspect&#45;test_c_2.0.2&#45;&gt;//:.aspect_rules_js/node_modules/@aspect&#45;test+d@2.0.0_at_aspect&#45;test_c_2.0.2/pkg</title>
<path fill="none" stroke="black" d="M2004.07,-431.52C1959.5,-421.58 1903.54,-409.1 1857.35,-398.81"/>
<polygon fill="black" stroke="black" points="1858.26,-395.2 1847.74,-396.44 1856.74,-402.03 1858.26,-395.2"/>
</g>
<!-- //:.aspect_rules_js/node_modules/@aspect&#45;test+c@2.0.2/lc -->
<g id="node37" class="node">
<title>//:.aspect_rules_js/node_modules/@aspect&#45;test+c@2.0.2/lc</title>
<polygon fill="none" stroke="black" points="2368.75,-252 2030.25,-252 2030.25,-216 2368.75,-216 2368.75,-252"/>
<text text-anchor="middle" x="2199.5" y="-228.95" font-family="Times,serif" font-size="14.00">//:.aspect_rules_js/node_modules/@aspect&#45;test+c@2.0.2/lc</text>
</g>
<!-- //:.aspect_rules_js/node_modules/@aspect&#45;test+c@2.0.2/pkg_lc&#45;&gt;//:.aspect_rules_js/node_modules/@aspect&#45;test+c@2.0.2/lc -->
<g id="edge40" class="edge">
<title>//:.aspect_rules_js/node_modules/@aspect&#45;test+c@2.0.2/pkg_lc&#45;&gt;//:.aspect_rules_js/node_modules/@aspect&#45;test+c@2.0.2/lc</title>
<path fill="none" stroke="black" d="M2199.5,-287.7C2199.5,-280.24 2199.5,-271.32 2199.5,-262.97"/>
<polygon fill="black" stroke="black" points="2203,-263.1 2199.5,-253.1 2196,-263.1 2203,-263.1"/>
</g>
<!-- //:.aspect_rules_js/node_modules/@aspect&#45;test+c@2.0.2/lc_js_filegroup -->
<g id="node38" class="node">
<title>//:.aspect_rules_js/node_modules/@aspect&#45;test+c@2.0.2/lc_js_filegroup</title>
<polygon fill="none" stroke="black" points="2171.75,-180 1761.25,-180 1761.25,-144 2171.75,-144 2171.75,-180"/>
<text text-anchor="middle" x="1966.5" y="-156.95" font-family="Times,serif" font-size="14.00">//:.aspect_rules_js/node_modules/@aspect&#45;test+c@2.0.2/lc_js_filegroup</text>
</g>
<!-- //:.aspect_rules_js/node_modules/@aspect&#45;test+c@2.0.2/lc&#45;&gt;//:.aspect_rules_js/node_modules/@aspect&#45;test+c@2.0.2/lc_js_filegroup -->
<g id="edge41" class="edge">
<title>//:.aspect_rules_js/node_modules/@aspect&#45;test+c@2.0.2/lc&#45;&gt;//:.aspect_rules_js/node_modules/@aspect&#45;test+c@2.0.2/lc_js_filegroup</title>
<path fill="none" stroke="black" d="M2141.31,-215.52C2108.93,-205.79 2068.47,-193.64 2034.63,-183.47"/>
<polygon fill="black" stroke="black" points="2035.94,-179.91 2025.36,-180.38 2033.93,-186.61 2035.94,-179.91"/>
</g>
<!-- //:.aspect_rules_js/node_modules/@aspect&#45;test+c@2.0.2/lc_runfiles -->
<g id="node39" class="node">
<title>//:.aspect_rules_js/node_modules/@aspect&#45;test+c@2.0.2/lc_runfiles</title>
<polygon fill="none" stroke="black" points="2613.75,-180 2227.25,-180 2227.25,-144 2613.75,-144 2613.75,-180"/>
<text text-anchor="middle" x="2420.5" y="-156.95" font-family="Times,serif" font-size="14.00">//:.aspect_rules_js/node_modules/@aspect&#45;test+c@2.0.2/lc_runfiles</text>
</g>
<!-- //:.aspect_rules_js/node_modules/@aspect&#45;test+c@2.0.2/lc&#45;&gt;//:.aspect_rules_js/node_modules/@aspect&#45;test+c@2.0.2/lc_runfiles -->
<g id="edge42" class="edge">
<title>//:.aspect_rules_js/node_modules/@aspect&#45;test+c@2.0.2/lc&#45;&gt;//:.aspect_rules_js/node_modules/@aspect&#45;test+c@2.0.2/lc_runfiles</title>
<path fill="none" stroke="black" d="M2254.7,-215.52C2285.27,-205.83 2323.45,-193.74 2355.46,-183.6"/>
<polygon fill="black" stroke="black" points="2356.15,-186.74 2364.62,-180.38 2354.03,-180.06 2356.15,-186.74"/>
</g>
<!-- //:.aspect_rules_js/node_modules/@aspect&#45;test+c@2.0.2/pkg_pre_lc -->
<g id="node40" class="node">
<title>//:.aspect_rules_js/node_modules/@aspect&#45;test+c@2.0.2/pkg_pre_lc</title>
<polygon fill="none" stroke="black" points="2180.25,-108 1790.75,-108 1790.75,-72 2180.25,-72 2180.25,-108"/>
<text text-anchor="middle" x="1985.5" y="-84.95" font-family="Times,serif" font-size="14.00">//:.aspect_rules_js/node_modules/@aspect&#45;test+c@2.0.2/pkg_pre_lc</text>
</g>
<!-- //:.aspect_rules_js/node_modules/@aspect&#45;test+c@2.0.2/lc&#45;&gt;//:.aspect_rules_js/node_modules/@aspect&#45;test+c@2.0.2/pkg_pre_lc -->
<g id="edge43" class="edge">
<title>//:.aspect_rules_js/node_modules/@aspect&#45;test+c@2.0.2/lc&#45;&gt;//:.aspect_rules_js/node_modules/@aspect&#45;test+c@2.0.2/pkg_pre_lc</title>
<path fill="none" stroke="black" d="M2200.78,-215.51C2201.23,-195.58 2198.75,-163.28 2180.5,-144 2167.58,-130.35 2151.53,-120.09 2134.22,-112.4"/>
<polygon fill="black" stroke="black" points="2136.06,-108.96 2125.48,-108.39 2133.39,-115.44 2136.06,-108.96"/>
</g>
<!-- //:.aspect_rules_js/node_modules/@aspect&#45;test+c@2.0.2/lc_js_filegroup&#45;&gt;//:.aspect_rules_js/node_modules/@aspect&#45;test+c@2.0.2/pkg_pre_lc -->
<g id="edge45" class="edge">
<title>//:.aspect_rules_js/node_modules/@aspect&#45;test+c@2.0.2/lc_js_filegroup&#45;&gt;//:.aspect_rules_js/node_modules/@aspect&#45;test+c@2.0.2/pkg_pre_lc</title>
<path fill="none" stroke="black" d="M1971.2,-143.7C1973.24,-136.15 1975.7,-127.12 1977.99,-118.68"/>
<polygon fill="black" stroke="black" points="1981.62,-119.67 1980.86,-109.1 1974.86,-117.84 1981.62,-119.67"/>
</g>
<!-- //:.aspect_rules_js/node_modules/@aspect&#45;test+c@2.0.2/lc_runfiles_lib -->
<g id="node41" class="node">
<title>//:.aspect_rules_js/node_modules/@aspect&#45;test+c@2.0.2/lc_runfiles_lib</title>
<polygon fill="none" stroke="black" points="2624.25,-108 2216.75,-108 2216.75,-72 2624.25,-72 2624.25,-108"/>
<text text-anchor="middle" x="2420.5" y="-84.95" font-family="Times,serif" font-size="14.00">//:.aspect_rules_js/node_modules/@aspect&#45;test+c@2.0.2/lc_runfiles_lib</text>
</g>
<!-- //:.aspect_rules_js/node_modules/@aspect&#45;test+c@2.0.2/lc_runfiles&#45;&gt;//:.aspect_rules_js/node_modules/@aspect&#45;test+c@2.0.2/lc_runfiles_lib -->
<g id="edge44" class="edge">
<title>//:.aspect_rules_js/node_modules/@aspect&#45;test+c@2.0.2/lc_runfiles&#45;&gt;//:.aspect_rules_js/node_modules/@aspect&#45;test+c@2.0.2/lc_runfiles_lib</title>
<path fill="none" stroke="black" d="M2420.5,-143.7C2420.5,-136.24 2420.5,-127.32 2420.5,-118.97"/>
<polygon fill="black" stroke="black" points="2424,-119.1 2420.5,-109.1 2417,-119.1 2424,-119.1"/>
</g>
<!-- //:.aspect_rules_js/node_modules/@aspect&#45;test+c@2.0.2/pkg_pre_lc_lite -->
<g id="node42" class="node">
<title>//:.aspect_rules_js/node_modules/@aspect&#45;test+c@2.0.2/pkg_pre_lc_lite</title>
<polygon fill="none" stroke="black" points="2192.25,-36 1778.75,-36 1778.75,0 2192.25,0 2192.25,-36"/>
<text text-anchor="middle" x="1985.5" y="-12.95" font-family="Times,serif" font-size="14.00">//:.aspect_rules_js/node_modules/@aspect&#45;test+c@2.0.2/pkg_pre_lc_lite</text>
</g>
<!-- //:.aspect_rules_js/node_modules/@aspect&#45;test+c@2.0.2/pkg_pre_lc&#45;&gt;//:.aspect_rules_js/node_modules/@aspect&#45;test+c@2.0.2/pkg_pre_lc_lite -->
<g id="edge46" class="edge">
<title>//:.aspect_rules_js/node_modules/@aspect&#45;test+c@2.0.2/pkg_pre_lc&#45;&gt;//:.aspect_rules_js/node_modules/@aspect&#45;test+c@2.0.2/pkg_pre_lc_lite</title>
<path fill="none" stroke="black" d="M1985.5,-71.7C1985.5,-64.24 1985.5,-55.32 1985.5,-46.97"/>
<polygon fill="black" stroke="black" points="1989,-47.1 1985.5,-37.1 1982,-47.1 1989,-47.1"/>
</g>
</g>
</svg>
